<?xml version="1.0" standalone="no"?>
<!DOCTYPE svg PUBLIC "-//W3C//DTD SVG 20010904//EN"
 "http://www.w3.org/TR/2001/REC-SVG-20010904/DTD/svg10.dtd">
<svg version="1.0" xmlns="http://www.w3.org/2000/svg"
 width="512.000000pt" height="512.000000pt" viewBox="0 0 512.000000 512.000000"
 preserveAspectRatio="xMidYMid meet">
<metadata>
Created by potrace 1.11, written by Peter Selinger 2001-2013
</metadata>
<g transform="translate(0.000000,512.000000) scale(0.100000,-0.100000)"
fill="#000000" stroke="none">
<path d="M583 4463 l-33 -4 0 -140 0 -139 -165 0 -165 0 0 -1685 0 -1685 1054
0 1053 0 7 -37 c7 -44 45 -89 92 -109 45 -19 223 -19 268 0 47 20 85 65 92
109 l7 37 1053 0 1054 0 0 1685 0 1685 -165 0 -165 0 0 139 0 139 -65 7 c-75
8 -234 0 -381 -20 -567 -78 -1089 -329 -1471 -707 l-93 -92 -92 92 c-384 379
-899 627 -1473 707 -108 15 -358 26 -412 18z m374 -178 c328 -43 647 -149 923
-307 191 -109 322 -209 488 -372 l112 -110 0 -1209 0 -1209 -42 32 c-411 310
-1013 515 -1610 547 l-118 6 0 1319 0 1318 64 0 c36 0 118 -7 183 -15z m3453
-1303 l0 -1319 -122 -7 c-601 -34 -1195 -236 -1605 -546 l-43 -32 0 1209 0
1209 113 110 c214 211 432 360 695 478 271 122 642 212 885 215 l77 1 0 -1318z
m-3860 -225 l0 -1254 173 -6 c334 -11 642 -68 962 -177 121 -41 485 -214 485
-230 0 -5 -6 -7 -12 -5 -7 2 -357 59 -778 126 -836 132 -798 129 -827 67 -16
-32 -1 -83 29 -99 11 -6 283 -52 604 -104 322 -51 588 -95 591 -99 4 -3 -309
-6 -695 -6 l-702 0 0 1520 0 1520 85 0 85 0 0 -1253z m4190 -267 l0 -1520
-702 1 c-396 0 -694 4 -683 9 11 5 270 47 575 95 305 48 570 91 588 97 45 14
69 65 50 106 -30 63 11 66 -840 -70 -512 -82 -773 -119 -766 -111 20 24 323
169 443 212 325 116 645 176 993 188 l172 6 0 1254 0 1253 85 0 85 0 0 -1520z"/>
</g>
</svg>
